<svg width="32" height="32" viewBox="0 0 32 32" fill="none" xmlns="http://www.w3.org/2000/svg">
<rect width="32" height="32" rx="4" fill="white"/>
<g clip-path="url(#clip0_1006_51868)">
<path d="M6.06705 17.4926C7.12531 16.9745 8.18236 16.4545 9.24062 15.9364C9.31158 15.9015 9.3385 15.8538 9.33788 15.7755C9.33115 14.9907 9.3281 14.2065 9.3232 13.4217C9.34706 12.8069 9.34217 12.1921 9.32626 11.5773C9.37092 11.5816 9.40945 11.5969 9.45166 11.6171C10.0236 11.8875 10.598 12.1523 11.1712 12.4184C11.192 12.4405 11.2079 12.4717 11.2336 12.4839C12.0576 12.8833 12.8828 13.2803 13.708 13.6786C13.7594 13.7037 13.8083 13.7073 13.8603 13.681C14.6837 13.2644 15.5199 12.8742 16.323 12.4197C16.6038 12.3762 16.8228 12.2062 17.0852 12.082C17.0369 12.0477 17.0198 12.0318 16.9996 12.0221C14.5124 10.8017 12.0239 9.58376 9.53853 8.3591C9.37092 8.27652 9.23512 8.27775 9.07301 8.36094C8.40196 8.70533 7.72846 9.04606 7.05068 9.37822C6.70568 9.54705 6.34966 9.69448 5.99854 9.85169V17.4944C6.02117 17.4944 6.04747 17.5018 6.06582 17.4926H6.06705Z" fill="#11183D"/>
<path d="M25.9656 21.1096C25.9711 21.0796 25.9821 21.0503 25.9821 21.0203C25.9833 19.1998 25.9821 17.3794 25.9864 15.5589C25.9864 15.3552 25.9148 15.3754 25.7735 15.4457C24.7641 15.948 23.7542 16.449 22.7381 16.9383C22.6488 16.9811 22.6531 17.024 22.6531 17.0876C22.655 18.4278 22.658 19.7681 22.6611 21.109C22.6409 21.3561 22.6433 21.3518 22.4243 21.224C22.3002 21.1512 22.165 21.0968 22.0359 21.0331C20.8204 20.4349 19.6056 19.8366 18.3901 19.2378C18.3081 19.1974 18.2359 19.1601 18.1344 19.2102C17.8377 19.3577 17.5306 19.4855 17.2333 19.6323C16.6033 19.9437 15.9763 20.2612 15.3499 20.5792C15.2043 20.6533 15.0244 20.6692 14.9082 20.8148C15.4165 21.0637 15.9145 21.2998 16.4057 21.55C16.7574 21.7293 17.0981 21.9299 17.4688 22.07C17.4841 22.0835 17.4976 22.1018 17.5153 22.1104C18.2922 22.4994 19.0856 22.853 19.8576 23.2524C20.6969 23.6868 21.5557 24.0831 22.4084 24.4906C22.4873 24.5285 22.551 24.6117 22.6543 24.5927C22.6843 24.5878 22.718 24.5903 22.7443 24.5774C23.7866 24.0654 24.8284 23.551 25.8707 23.039C25.9362 23.0065 25.987 22.9735 25.9851 22.8891C25.9723 22.2963 26.0084 21.703 25.9662 21.1102L25.9656 21.1096Z" fill="#11183D"/>
<path d="M16.9057 24.1354C16.636 24.2705 16.365 24.4045 16.0989 24.5464C16.0096 24.5941 15.9392 24.5929 15.8493 24.5464C15.5808 24.4088 15.3024 24.2889 15.0357 24.147C14.9158 24.0834 14.8235 24.087 14.7029 24.1464C13.9548 24.514 13.2018 24.8712 12.4524 25.2358C12.1515 25.3826 11.8554 25.5392 11.5508 25.6946C12.1313 25.9846 12.6892 26.2629 13.2471 26.5418C13.5731 26.7351 13.9297 26.8642 14.268 27.0306C14.7941 27.2887 15.3134 27.5616 15.8377 27.8234C15.9037 27.8564 15.9619 27.9017 16.0622 27.8509C16.9437 27.405 17.8306 26.9706 18.7158 26.5333C19.2688 26.2794 19.8089 26.0011 20.379 25.6928C19.292 25.1526 18.238 24.629 17.1834 24.106C17.085 24.0571 16.9926 24.0913 16.9045 24.1354H16.9057Z" fill="#11183D"/>
<path d="M25.9994 10.0407C26.0006 9.88045 25.9168 9.82662 25.7859 9.7991C25.7003 9.75872 25.614 9.71957 25.529 9.67798C24.6451 9.24244 23.7593 8.80934 22.8784 8.36646C22.7273 8.29061 22.6062 8.29183 22.4594 8.37074C22.1077 8.56099 21.7474 8.73655 21.3913 8.91945C20.8029 9.22164 20.1704 9.43513 19.6137 9.80093C19.5232 9.81928 19.4436 9.86088 19.3635 9.92205C19.6657 10.0835 19.9581 10.2505 20.2603 10.398C20.9809 10.7509 21.7064 11.0929 22.4282 11.4434C22.4955 11.4758 22.6025 11.4734 22.605 11.5896C22.4735 11.6404 22.3364 11.6801 22.211 11.7437C21.4256 12.1432 20.6383 12.539 19.8413 12.9164C18.8748 13.374 17.9223 13.8621 16.9638 14.3368C16.6163 14.4671 16.3043 14.669 15.9716 14.8262C14.7744 15.3896 13.6006 16 12.3985 16.553C11.5648 16.9366 10.764 17.3905 9.93393 17.7826C9.02003 18.2138 8.11592 18.6634 7.22221 19.1339C6.8148 19.3198 6.4074 19.5052 6 19.6911V22.9864C7.02401 23.4831 8.0523 23.9719 9.06897 24.4839C9.26472 24.5824 9.40541 24.5812 9.59015 24.4839C10.0954 24.2203 10.6099 23.9737 11.1207 23.7211C11.621 23.474 12.1214 23.2274 12.661 22.9614C11.993 22.661 11.3959 22.3154 10.7573 22.053C10.6863 22.0114 10.6166 21.9673 10.5444 21.9276C10.1609 21.7183 9.74675 21.5691 9.37422 21.3373C9.4519 21.292 9.52714 21.2418 9.60789 21.2021C10.9292 20.5524 12.2511 19.9034 13.5724 19.255C13.6483 19.2201 13.7266 19.1889 13.8006 19.1504C15.1408 18.4518 16.5129 17.8168 17.8673 17.1476C19.6443 16.2692 21.4323 15.4128 23.2057 14.5264C23.3898 14.4341 23.5697 14.3331 23.7581 14.2505C24.5031 13.9221 25.2268 13.5507 25.9517 13.18C26.0024 13.1519 25.9908 13.1024 25.9908 13.0583C25.9933 12.052 25.9927 11.0458 26 10.0395L25.9994 10.0407Z" fill="#11183D"/>
<path d="M14.7635 8.77391C14.8479 8.81857 14.9244 8.78431 14.9997 8.74639C15.2566 8.61731 15.5166 8.49252 15.7698 8.35611C15.9215 8.27414 16.0567 8.2613 16.2127 8.35305C16.4476 8.49191 16.6923 8.61487 16.9363 8.73782C16.9987 8.76902 17.0575 8.82346 17.1462 8.77819C17.8509 8.42156 18.558 8.06983 19.2645 7.71626C19.6438 7.53458 20.0231 7.3529 20.4457 7.14981C19.6732 6.77177 18.9501 6.42126 18.2301 6.06463C17.5162 5.71106 16.7889 5.38502 16.0916 4.99902H15.8622C14.818 5.5722 13.7346 6.06952 12.6684 6.59988C12.3026 6.78156 11.9178 6.92654 11.5386 7.15042C11.924 7.34739 12.2732 7.55171 12.6519 7.6973C13.3388 8.08879 14.0643 8.40505 14.7629 8.7733L14.7635 8.77391Z" fill="#11183D"/>
</g>
<defs>
<clipPath id="clip0_1006_51868">
<rect width="20" height="22.8738" fill="white" transform="translate(6 5)"/>
</clipPath>
</defs>
</svg>
