<svg width="32" height="32" viewBox="0 0 32 32" fill="none" xmlns="http://www.w3.org/2000/svg">
<g clip-path="url(#clip0_1006_51866)">
<path d="M0 4C0 1.79086 1.79086 0 4 0H28C30.2091 0 32 1.79086 32 4V28C32 30.2091 30.2091 32 28 32H4C1.79086 32 0 30.2091 0 28V4Z" fill="white"/>
<path d="M22.619 24.8464C23.0031 24.6813 23.3504 24.441 23.6402 24.1396C23.93 23.8382 24.1565 23.4818 24.3065 23.0914C24.7734 21.7939 24.5802 20.3483 23.7327 19.6171C22.8852 18.8858 20.8584 17.8096 20.8584 17.8096C20.8584 17.8096 20.3502 18.7827 21.2334 20.1458C22.0771 21.4583 22.5346 22.1389 22.8177 22.8739C23.1815 23.8189 22.619 24.8464 22.619 24.8464Z" fill="#070B27"/>
<path d="M24.7937 20.3461C24.7937 20.3461 24.9944 18.9529 22.8006 18.0961C21.1375 17.4436 19.75 16.8886 19.075 16.0711C18.8625 15.8206 18.7073 15.5267 18.6205 15.2099C18.5337 14.8931 18.5173 14.5611 18.5725 14.2373C18.5725 14.2373 19.1087 14.8842 21.2369 15.1073C23.1944 15.3136 24.4244 16.0129 24.9381 17.1379C25.1824 17.6426 25.2972 18.2002 25.272 18.7603C25.2467 19.3204 25.0824 19.8654 24.7937 20.3461Z" fill="#070B27"/>
<path d="M19.8792 17.3477C19.8792 17.3477 20.3386 18.7689 19.5154 19.6108C18.7973 20.3439 17.7342 20.3458 16.8904 20.5089C16.3087 20.6217 15.7541 20.8458 15.2573 21.1689C16.0543 20.9624 16.8719 20.8461 17.6948 20.822C18.8461 20.822 19.8229 20.3514 20.1811 19.5395C20.7867 18.1802 19.8792 17.3477 19.8792 17.3477Z" fill="#070B27"/>
<path d="M15.7938 23.2018C16.4631 22.915 17.1606 23.2412 17.6013 23.8318C18.0419 24.4224 18.2238 25.6656 19.1763 26.2262C20.1288 26.7868 21.1469 25.8943 21.1469 25.8943C21.1469 25.8943 20.1944 26.2974 19.6206 26.0181C19.0037 25.7181 18.91 25.1931 18.8013 24.2893C18.6138 22.8137 17.8394 22.2268 17.1588 21.9793C16.1962 21.6668 15.1497 21.7414 14.2412 22.1874C13.5944 22.5121 12.9889 22.9131 12.4375 23.3818C12.4375 23.3818 13.5625 23.5693 14.0125 23.8375C14.4625 24.1056 15.0363 25.0168 15.6063 25.1949C16.1294 25.3599 16.6712 25.2774 16.9637 24.8537C17.2562 24.4299 17.1288 23.6874 16.6525 23.5281C16.0694 23.3312 15.6531 23.6087 15.6775 23.9687C15.6727 24.0652 15.7053 24.1597 15.7686 24.2327C15.8318 24.3057 15.9207 24.3515 16.0169 24.3606C16.0169 24.3606 15.6419 24.1731 15.7994 23.8543C15.9869 23.5037 16.4181 23.5543 16.6525 23.7193C16.9394 23.9218 16.9825 24.6193 16.4931 24.8181C16.0037 25.0168 15.385 24.6924 15.2913 24.3043C15.1975 23.9162 15.2331 23.4437 15.7938 23.2018Z" fill="#070B27"/>
<path d="M14.3479 13.4447L6.38477 4.61719C6.38477 4.61719 13.1479 12.9572 13.3898 13.2422C13.6316 13.5272 13.7648 13.7784 13.5548 13.9716C13.3797 14.1161 13.1682 14.2095 12.9435 14.2416C12.787 14.2768 12.6236 14.2649 12.4738 14.2076C12.324 14.1502 12.1946 14.0498 12.1016 13.9191C11.7604 13.5084 9.26852 9.56531 9.26852 9.56531C9.26852 9.56531 11.4998 13.6041 11.6141 13.8422C11.7285 14.0803 11.8016 14.2903 11.6891 14.4403C11.5049 14.6336 11.349 14.852 11.226 15.0891C11.1023 15.3928 11.001 16.2816 10.8979 16.6659C10.6207 17.4908 10.1736 18.2484 9.58539 18.8897C9.04914 19.4522 8.63477 20.1834 8.79789 21.2166C8.95352 22.2047 9.58914 22.9884 9.69602 23.1572C9.80566 23.3081 9.87064 23.4867 9.88352 23.6728C9.88352 23.6728 11.4773 23.4853 12.3866 22.6509C13.2041 21.9009 12.7616 21.0609 12.5216 20.8491C12.351 20.6972 11.2579 19.9641 11.1491 19.5778C11.0404 19.1916 10.8641 18.9197 11.3854 17.8753C11.9066 16.8309 11.7735 16.7203 11.8429 16.3603C11.9123 16.0003 11.8973 15.2578 12.3116 15.1078C12.726 14.9578 13.2491 15.0272 13.7479 14.7328C14.4754 14.2903 14.3479 13.4447 14.3479 13.4447ZM9.84789 21.2972C9.81754 21.2975 9.78745 21.2916 9.75949 21.2797C9.73153 21.2679 9.70631 21.2505 9.68538 21.2285C9.66445 21.2065 9.64827 21.1805 9.63784 21.152C9.62741 21.1235 9.62296 21.0931 9.62477 21.0628C9.62477 20.9372 9.75602 20.8472 9.73352 20.7684C9.71102 20.6897 9.59664 20.6859 9.57227 20.5809C9.55914 20.5247 9.60789 20.4178 9.81414 20.4103C9.93235 20.4171 10.0434 20.4692 10.1241 20.5558C10.2048 20.6425 10.2489 20.7569 10.2473 20.8753C10.2439 20.9827 10.2012 21.085 10.1272 21.1628C10.0531 21.2407 9.95306 21.2885 9.84602 21.2972H9.84789Z" fill="#070B27"/>
<path d="M15.0138 15.1247C14.8779 15.1331 14.7452 15.1696 14.6241 15.232C14.5031 15.2943 14.3962 15.3811 14.3104 15.4868C14.2246 15.5926 14.1616 15.715 14.1255 15.8463C14.0894 15.9776 14.081 16.1149 14.1007 16.2497C14.1626 16.7259 14.7888 16.6903 15.177 16.5703C15.5651 16.4503 15.9795 16.3828 15.9438 15.8972C15.9082 15.4116 15.327 15.1078 15.0138 15.1247ZM15.027 15.8953C14.7832 15.8953 14.5863 15.7603 14.5863 15.5934C14.5863 15.4266 14.7738 15.2916 15.027 15.2916C15.2801 15.2916 15.4676 15.4266 15.4676 15.5934C15.4676 15.7603 15.2707 15.8953 15.027 15.8953Z" fill="#070B27"/>
<path d="M13.5194 10.0166C13.5194 10.0166 14.3951 10.0991 14.8188 10.7666C15.2426 11.4341 15.1938 12.3285 15.4244 12.7241C15.5371 12.9406 15.6623 13.1503 15.7994 13.3522C15.8651 13.4347 15.9157 13.5585 15.7582 13.5866C15.3719 13.6579 14.5019 13.3054 14.0257 12.3641C13.3132 10.9635 13.5194 10.0166 13.5194 10.0166Z" fill="#070B27"/>
<path d="M22.4425 9.85156C22.4425 9.85156 22.195 10.3578 22.3844 11.2484C22.4389 11.4957 22.5701 11.7195 22.7594 11.8878C23.1187 12.2414 23.4556 12.6171 23.7681 13.0128L22.8869 12.2984C22.6994 12.1484 22.5869 12.1541 22.5756 12.3134C22.5644 12.4728 22.4969 13.1684 22.4725 13.3203C22.4159 13.5175 22.3425 13.7094 22.2531 13.8941C22.2531 13.8941 22.345 13.4609 22.3544 13.3428C22.375 13.0541 22.3712 12.1728 22.1519 11.8934C21.7769 11.4172 20.6519 10.9897 20.6519 10.9897C21.0893 11.0544 21.5154 11.1806 21.9175 11.3647C22.0862 11.4434 22.1237 11.3853 22.1237 11.2672C22.1362 10.9529 22.1688 10.6398 22.2212 10.3297C22.2561 10.155 22.3319 9.99118 22.4425 9.85156Z" fill="#070B27"/>
<path d="M22.8757 13.073C22.7294 13.9018 22.4463 14.198 22.3544 14.2693C22.2957 14.3217 22.2205 14.352 22.1418 14.3551C22.0632 14.3582 21.9859 14.3338 21.9232 14.2861C21.8654 14.2337 21.8273 14.1631 21.815 14.0861C21.8028 14.0091 21.8171 13.9302 21.8557 13.8624C21.9365 13.7154 21.9934 13.5566 22.0244 13.3918C22.0484 13.0148 22.0207 12.6362 21.9419 12.2668C21.6317 12.0563 21.2998 11.8797 20.9519 11.7399C18.8501 10.8811 17.2263 11.4174 17.2263 11.4174C17.2263 11.4174 16.3582 10.3711 15.5069 9.91739C14.908 9.62274 14.2413 9.49329 13.5757 9.54239C13.5757 9.54239 14.7757 9.72989 15.4507 10.2736C16.6619 11.2618 17.9163 13.3205 18.8013 13.8005C20.6144 14.7849 22.1988 14.198 23.1719 14.6855C23.9069 15.0605 24.1094 15.5124 24.1094 15.5124C23.9248 14.6032 23.4986 13.7605 22.8757 13.073Z" fill="#070B27"/>
</g>
<defs>
<clipPath id="clip0_1006_51866">
<rect width="32" height="32" fill="white"/>
</clipPath>
</defs>
</svg>
